<?xml version="1.0" encoding="UTF-8" standalone="no"?>
<!-- Created with Inkscape (http://www.inkscape.org/) -->

<svg
   width="210mm"
   height="210mm"
   viewBox="0 0 210 210"
   version="1.1"
   id="svg1"
   xml:space="preserve"
   inkscape:version="1.3 (0e150ed6c4, 2023-07-21)"
   sodipodi:docname="logo.svg"
   xmlns:inkscape="http://www.inkscape.org/namespaces/inkscape"
   xmlns:sodipodi="http://sodipodi.sourceforge.net/DTD/sodipodi-0.dtd"
   xmlns="http://www.w3.org/2000/svg"
   xmlns:svg="http://www.w3.org/2000/svg"><sodipodi:namedview
     id="namedview1"
     pagecolor="#505050"
     bordercolor="#eeeeee"
     borderopacity="1"
     inkscape:showpageshadow="0"
     inkscape:pageopacity="0"
     inkscape:pagecheckerboard="0"
     inkscape:deskcolor="#505050"
     inkscape:document-units="mm"
     inkscape:zoom="0.71622834"
     inkscape:cx="368.59753"
     inkscape:cy="418.16273"
     inkscape:window-width="2560"
     inkscape:window-height="1351"
     inkscape:window-x="-9"
     inkscape:window-y="-9"
     inkscape:window-maximized="1"
     inkscape:current-layer="layer1" /><defs
     id="defs1" /><g
     inkscape:label="Layer 1"
     inkscape:groupmode="layer"
     id="layer1"
     transform="matrix(1.7274011,0,0,1.7274011,-76.720492,-135.65742)"><path
       style="display:inline;fill:#245b70;stroke:none"
       d="m 68.230834,121.27905 c -3.309754,0.68144 -6.481952,2.55099 -9.260416,4.40973 -17.441401,11.66797 -19.407988,36.72776 -4.740449,51.39529 11.187511,11.18753 25.95024,10.07623 40.459197,10.07623 h 24.077084 c 5.49987,0 11.22326,0.44553 16.66875,-0.32338 11.09102,-1.56607 21.20132,-7.93455 26.52448,-17.93287 1.58263,-2.97262 2.7724,-5.94429 3.42488,-9.26042 0.85279,-4.33408 0.79446,-9.17917 -0.15435,-13.49375 -1.71141,-7.78234 -6.48426,-14.9652 -12.86168,-19.7335 -1.87321,-1.40056 -3.96704,-2.75283 -6.08542,-3.74827 -1.06183,-0.49896 -3.15835,-0.87081 -3.77766,-1.94027 -0.7098,-1.22575 -0.17818,-3.87565 -0.19109,-5.26962 -0.0237,-2.56637 -0.64981,-5.19639 -1.28616,-7.67292 -2.68433,-10.447017 -10.32668,-18.778534 -19.8805,-23.489115 -18.45267,-9.098216 -40.516245,-0.370988 -49.535881,17.668285 -2.422026,4.84405 -5.343754,13.94467 -3.380785,19.31458 M 103.15583,99.642018 c 12.0939,-1.707712 24.91985,10.552162 18.45469,22.695372 -2.06866,3.88547 -5.62907,6.73251 -9.98802,7.57001 -1.35044,0.25946 -2.93984,-0.23737 -4.23333,0.23519 -1.82517,0.66681 -2.134,4.14371 -1.33762,5.68854 0.76294,1.47995 2.30203,1.32292 3.71887,1.32292 H 119.56 c 7.32,0 15.06067,-1.14095 20.90208,4.25539 8.56692,7.91418 3.92659,23.28174 -6.87917,26.33338 -3.94068,1.11288 -8.3772,0.63206 -12.43541,0.63206 H 99.716249 c -2.462067,0 -9.316138,1.17852 -10.884663,-1.08039 -0.935731,-1.34759 -0.49242,-3.70866 -0.49242,-5.26961 V 149.0603 126.04155 c 0,-4.62174 -0.452637,-9.51805 0.757004,-14.02291 1.725217,-6.42495 7.500203,-11.4504 14.05966,-12.376622 z"
       id="path1" /><ellipse
       style="fill:#c4dcdd;fill-opacity:1;stroke-width:1.2;stroke-linecap:round;stroke-linejoin:round;paint-order:markers stroke fill"
       id="path2"
       cx="104.87731"
       cy="192.64511"
       rx="57.728233"
       ry="4.3100262" /></g></svg>
